{"title":"John Carter 2012 Cam XviD Feel-Free","uid":7095163,"size":1399303930,"categoryP":"video","categoryS":"movies","magnet":"?xt=urn:btih:8ac7bf7e18d1b8d4168450a5df0778daaa4433f3&amp;dn=John+Carter+2012+Cam+XviD+Feel-Free&amp;tr=udp%3A%2F%2Ftracker.openbittorrent.com%3A80&amp;tr=udp%3A%2F%2Fopen.demonii.com%3A1337&amp;tr=udp%3A%2F%2Ftracker.coppersurfer.tk%3A6969&amp;tr=udp%3A%2F%2Fexodus.desync.com%3A6969","seeders":6,"leechers":0,"uploader":null,"files":10,"time":1331544329,"description":"Genre:Action | Adventure | Fantasy\nLanguage:English\nIMDb:http://www.imdb.com/title/tt0401729/\nSource: Lum1x/INSPiRAL Thanks!\nSUBS:English when needed\nEncoder:Tony\n\nFormat : AVI\nFormat/Info : Audio Video Interleave\nFile size : 1.30 GiB\nDuration : 1h 59mn\nOverall bit rate : 1 554 Kbps\n\nVideo\nID : 0\nFormat : MPEG-4 Visual\nFormat profile : Advanced Simple@L5\nFormat settings, BVOP : 1\nFormat settings, QPel : No\nFormat settings, GMC : No warppoints\nFormat settings, Matrix : Default (H.263)\nCodec ID : XVID\nCodec ID/Hint : XviD\nDuration : 1h 59mn\nBit rate : 1 352 Kbps\nWidth : 640 pixels\nHeight : 272 pixels\nDisplay aspect ratio : 2.35:1\nFrame rate : 25.000 fps\nColor space : YUV\nChroma subsampling : 4:2:0\nBit depth : 8 bits\nScan type : Progressive\nCompression mode : Lossy\nBits/(Pixel*Frame) : 0.311\nStream size : 1.13 GiB (87%)\nWriting library : XviD 1.2.1 (UTC 2008-12-04)\n\nAudio\nID : 1\nFormat : AC-3\nFormat/Info : Audio Coding 3\nMode extension : CM (complete main)\nCodec ID : 2000\nDuration : 1h 59mn\nBit rate mode : Constant\nBit rate : 192 Kbps\nChannel(s) : 2 channels\nChannel positions : Front: L R\nSampling rate : 48.0 KHz\nBit depth : 16 bits\nCompression mode : Lossy\nStream size : 165 MiB (12%)\nAlignment : Aligned on interleaves\nInterleave, duration : 40 ms (1.00 video frame)\nInterleave, preload duration : 512 ms\n\n\nPlot:\nTransplanted to Mars, a Civil War vet discovers a lush planet inhabited by 12-foot tall barbarians. Finding himself a prisoner of these creatures, he escapes, only to encounter a princess who is in desperate need of a savior.","torrent":{"xt":"urn:btih:8ac7bf7e18d1b8d4168450a5df0778daaa4433f3","amp;dn":"John+Carter+2012+Cam+XviD+Feel-Free","amp;tr":["udp%3A%2F%2Ftracker.openbittorrent.com%3A80","udp%3A%2F%2Fopen.demonii.com%3A1337","udp%3A%2F%2Ftracker.coppersurfer.tk%3A6969","udp%3A%2F%2Fexodus.desync.com%3A6969"],"infoHash":"8ac7bf7e18d1b8d4168450a5df0778daaa4433f3","infoHashBuffer":{"type":"Buffer","data":[138,199,191,126,24,209,184,212,22,132,80,165,223,7,120,218,170,68,51,243]},"announce":[],"urlList":[]}}